<?xml version="1.0" encoding="utf-8"?>
<!-- Generator: Adobe Illustrator 19.2.0, SVG Export Plug-In . SVG Version: 6.00 Build 0)  -->
<svg version="1.1" id="Layer_1" xmlns="http://www.w3.org/2000/svg" xmlns:xlink="http://www.w3.org/1999/xlink" x="0px" y="0px"
	 viewBox="0 0 250 85" style="enable-background:new 0 0 250 85;" xml:space="preserve">
<style type="text/css">
	.st0{fill:#FFFFFF;}
	.st1{fill:#72C271;}
</style>
<g id="Слой_x0020_1">
	<path class="st0" d="M121.1,2.8c0.9,0.4,1.3,1,1.1,1.8c-0.1,0.1-0.1,0.4-0.3,0.9L121,9.6c-0.1,0.9-0.3,1.6-0.5,2.1
		c-0.1,0.5-0.6,2.2-1.4,5L114,36.1c-0.4,1.3-0.7,2.6-1,3.6l-1.1,3.6l-6.6,23.8c-0.4,1-0.7,2-0.7,2.9l-2.3,8.8
		c-0.4,1.4-0.7,2.6-0.9,3.4c-0.3,1-1.1,1.4-2.3,1.2c-1.1-0.3-1.6-1-1.4-2l3.8-13.5l6.4-24.7c-0.1,0-0.1,0-0.1-0.1
		c0.1,0.1,0-0.1-0.3-0.6l-1.1-2.6l-3.3-8.6c-1-2.7-1.8-5.1-2.5-7.2l-0.6-1.9c-0.3-0.7-0.4-1.3-0.6-1.8c-0.4-1-0.8-2.3-1.3-3.6
		l-1.1-3.3c0-0.2-0.1-0.5-0.3-0.8c-0.1-0.4-0.1-0.6-0.3-0.8l-3-7.4c-0.4-1,0-1.7,1.1-2.1c1.1-0.4,1.9-0.1,2.3,1c0.1,0,0.1,0,0.1,0.1
		l2,6c0.1,0.2,0.3,0.7,0.5,1.4c0.3,0.5,0.6,1,0.6,1.4l9.4,23.6c0,0.1,0,0.1,0.1,0.2l3.7-14.9l3-10.7c0.3-0.8,0.7-2.1,1.3-3.8
		c0-0.2,0.1-0.5,0.3-0.8l0.9-2.6C119.2,2.8,120,2.5,121.1,2.8L121.1,2.8z M146.4,50.3c0,2.7,0,4.7,0.1,5.9l-0.3,18.6
		c0,2.6,0,4.3-0.1,5.1v1.9c0,1-0.6,1.4-1.7,1.4s-1.7-0.5-1.7-1.6c0.1-0.4,0.1-1.1,0.1-1.9l0.5-13.2l0.3-21.6c-0.4,0-0.7,0-0.9-0.1
		c0-0.1-0.1-0.1-0.3-0.1l-0.5-0.1c-0.1-0.1-0.4-0.1-0.9-0.1c-0.3-0.1-0.7-0.1-1.3-0.1l-14.5,0.3l-0.4,5.1c-0.1,0.7-0.1,1.7-0.1,3
		v2.9c0,2.8,0.1,6.2,0.3,10.4l0.4,8.1c0.3,4.3,0.4,6,0.4,5.1l0.3,1.8c0,1.3-0.7,2-2,2.1c-1.4,0-2.2-0.6-2.4-1.8V66.3l0.3-19.6
		c0-1.4,0-2.5,0.1-3.3c0-1.4,0.1-3.7,0.3-6.8l0.6-7.1c0.1-1.6,0.5-4,1-7.3c0.3-1.6,0.6-2.9,0.9-3.7c0.3-1.6,0.6-2.9,0.9-3.7l1.7-5.7
		l0.7-1.9c0.7-1.4,1.6-2.7,2.5-3.7c0.8-0.7,1.6-1.2,2.3-1.4c0.4-0.3,0.9-0.5,1.4-0.6l1.5-0.1c0.9,0,1.9,0.2,2.8,0.6
		c0.7,0.4,1.5,0.9,2.3,1.6l1.4,1.9c0.5,0.9,0.8,1.6,1,2c0.7,1.7,1.3,4.3,1.7,7.7c0.3,2,0.6,7,1,14.8c0.1,6.4,0.3,11,0.3,13.9
		c0.1,1.4,0.1,3.5,0.1,6.4L146.4,50.3z M143.5,41.1l-0.1-10.9l-0.4-7.3c0-0.9-0.1-2.1-0.3-3.6l-0.6-3.7c-0.3-1.6-0.6-2.8-0.9-3.6
		c-0.1-0.8-0.6-2-1.3-3.5c-0.6-1.2-1.2-2.1-1.9-2.7c-0.3-0.2-0.6-0.5-1.1-0.8c-0.5-0.1-0.9-0.2-1.3-0.2l-1.3,0.3
		c-0.3,0.1-0.6,0.3-1.1,0.8c-0.7,0.5-1.4,1.4-2.1,2.7c-0.4,0.7-1,1.7-1.6,3.3c-0.6,1.6-0.8,2.1-0.6,1.8l-1.3,5.4
		c0,0.4-0.1,1-0.3,1.8l-1.1,9.1c-0.5,5.1-0.8,8.8-1,11.2l15.6,0.3L143.5,41.1L143.5,41.1z M181.4,81.3c0.2,1.2-0.4,1.8-1.8,1.8
		c-1.1,0.1-1.8-0.4-2-1.7l-2-64.8l-2.4,11.4l-5.8,30.3c-0.3,1.2-1.1,1.7-2.5,1.6c-1.1-0.3-1.7-0.8-1.7-1.6c-0.3-1.5-0.6-2.6-0.6-3.4
		c-0.3-1.5-0.6-2.6-0.6-3.4c-0.3-1.6-0.7-3.8-1.3-6.8c-0.1-0.7-0.3-1.8-0.6-3.4l-0.9-5l-3.4-15.3l-0.5,12c-0.1,2.1-0.1,5.4-0.1,9.7
		l-0.4,38.5c0,1.2-0.7,1.8-2,1.8c-1.3,0-1.8-0.6-1.8-1.8l1.1-43.4l-0.1-14.4c0.1-2.1,0.1-5.4,0.1-9.6l0.1-9.6c0-1.2,0.7-1.8,2.1-1.8
		c1.1,0,1.8,0.5,2,1.4l3.8,20.3c0.5,3,0.9,5.2,1.3,6.7l2.1,10.1l1.7,7.2l5.7-23.9l4.4-20.2c0.1-0.9,0.7-1.3,1.6-1.1
		c0.8,0.1,1.3,0.6,1.3,1.2L181.4,81.3L181.4,81.3z M216.7,81.3c0.1,1.2-0.4,1.8-1.9,1.8c-1.1,0.1-1.8-0.4-2-1.7l-2-64.8l-2.4,11.4
		l-5.8,30.3c-0.3,1.2-1.1,1.7-2.5,1.6c-1.1-0.3-1.7-0.8-1.7-1.6c-0.3-1.5-0.6-2.6-0.6-3.4c-0.3-1.5-0.6-2.6-0.6-3.4
		c-0.3-1.6-0.7-3.8-1.3-6.8c-0.1-0.7-0.3-1.8-0.6-3.4l-0.9-5L191,21.1l-0.5,12c-0.1,2.1-0.1,5.4-0.1,9.7l-0.4,38.5
		c0,1.2-0.7,1.8-2,1.8c-1.3,0-1.9-0.6-1.9-1.8l1.1-43.4l-0.1-14.4c0.1-2.1,0.1-5.4,0.1-9.6l0.1-9.6c0-1.2,0.7-1.8,2.1-1.8
		c1.1,0,1.8,0.5,2,1.4l3.8,20.3c0.5,3,0.9,5.2,1.3,6.7l2.1,10.1l1.7,7.2l5.7-23.9l4.4-20.2c0.1-0.9,0.7-1.3,1.6-1.1
		c0.8,0.1,1.3,0.6,1.3,1.2L216.7,81.3L216.7,81.3z M247.1,2.8c0.9,0.4,1.3,1,1.1,1.8c-0.1,0.1-0.1,0.4-0.3,0.9l-0.9,4.1
		c-0.1,0.9-0.3,1.6-0.5,2.1c-0.1,0.5-0.6,2.2-1.4,5L240,36.1c-0.4,1.3-0.7,2.6-1,3.6l-1.1,3.6l-6.6,23.8c-0.4,1-0.7,2-0.7,2.9
		l-2.3,8.8c-0.4,1.4-0.7,2.6-0.9,3.4c-0.3,1-1.1,1.4-2.3,1.2c-1.1-0.3-1.6-1-1.4-2l3.8-13.5l6.4-24.7c-0.1,0-0.1,0-0.1-0.1
		c0.1,0.1,0-0.1-0.3-0.6l-1.1-2.6l-3.3-8.6c-1-2.7-1.8-5.1-2.5-7.2l-0.6-1.9c-0.3-0.7-0.4-1.3-0.6-1.8c-0.4-1-0.8-2.3-1.3-3.6
		l-1.1-3.3c0-0.2-0.1-0.5-0.3-0.8c-0.1-0.4-0.1-0.6-0.3-0.8l-3-7.4c-0.4-1,0-1.7,1.1-2.1c1.1-0.4,1.9-0.1,2.3,1c0.1,0,0.1,0,0.1,0.1
		l2,6c0.1,0.2,0.3,0.7,0.5,1.4c0.3,0.5,0.6,1,0.6,1.4l9.4,23.6c0,0.1,0,0.1,0.1,0.2l3.7-14.9l3-10.7c0.3-0.8,0.7-2.1,1.3-3.8
		c0-0.2,0.1-0.5,0.3-0.8l0.9-2.6C245.3,2.8,246,2.5,247.1,2.8L247.1,2.8z"/>
	<path class="st0" d="M23.5,79.9c1.1,0,1.6,0.5,1.6,1.6c0,1-0.6,1.4-1.7,1.4L3.2,82.7c-0.9,0-1.4-0.4-1.4-1.3l0.4-24.3L2,47.7
		c-0.1-1-0.1-2.7-0.1-4.8c0-1,0.1-2.6,0.3-4.7c0.1-2.1,0.3-3.7,0.3-4.7L2.3,19.3L2.8,5.1c0-0.7,0.4-1.1,1.3-1.2l14.2-1.2l4.7-0.6
		c1.4-0.1,2.2,0.4,2.4,1.7c0.3,1.3-0.3,2-1.9,2.1L5.6,6.3l0.1,20.2l-0.1,2.4c-0.1,2.1-0.3,3.7-0.3,4.7c0,2.1,0,3.7,0.1,4.7
		c0.1,0.7,0.1,1.7,0.1,3l3.5,0.2l9.6-0.4c1.3-0.1,1.9,0.3,1.9,1.4c0.1,1.1-0.4,1.7-1.7,1.7c-0.6,0.1-1.3,0.1-2.1,0.1l-8.6,0.3
		l-2.5,0.4c0,1.2,0,2.1-0.1,2.7l-0.4,4.7L5,57.1c-0.1,1-0.1,2.7-0.1,4.8v18.2l18.7-0.3H23.5z M53,64.1c-0.2-1.3-1-1.9-2.4-1.8
		c-1.4,0.1-2,0.9-1.9,2.3v0.2c0,0.4,0,0.7,0.1,1c0,1.6,0,2.9-0.1,4l-0.5,2.7c-0.3,1.5-0.7,2.6-1,3.1c-0.4,0.8-0.7,1.3-0.9,1.4
		c-0.1,0.4-0.6,0.8-1.1,1.3c-1.1,1-2.3,1.5-3.5,1.6l-2.4,0.1l-2.4-0.3c-1-0.3-1.7-0.6-2.1-0.9c-0.6-0.3-1.1-0.8-1.5-1.6l-0.6-1
		l-0.1-0.6c-0.1-0.3-0.2-0.5-0.3-0.6c-0.3-0.7-0.6-1.6-0.7-2.5c-0.3-1.3-0.6-3.2-0.9-5.5l-0.4-5.7c0-0.7-0.1-1.7-0.3-3l-0.3-3v-6
		c0.1-2.7,0.3-4.7,0.3-6.1L30,31.1c0-2.7,0-4.7,0.1-5.9c0.1-2.6,0.3-4.5,0.5-5.8c0-1,0.1-1.9,0.4-2.8c0.2-1.2,0.3-2.1,0.5-2.7
		c0.4-2.1,1-3.7,1.7-4.9c0.5-0.9,1-1.5,1.4-1.8c0.4-0.4,1-0.8,1.7-1.1c1.1-0.4,2.6-0.6,4.6-0.4c1.7,0.1,3,0.5,4.1,1
		c1.1,0.4,2,1.1,2.6,2.1c0.5,0.7,0.9,1.7,1.3,2.8l0.6,2.8c0.3,3.4,0.3,4.7,0.3,4l-0.1,1.4c0,1,0.6,1.4,1.7,1.4
		c1.1,0,1.7-0.5,1.7-1.4v-1.6c0-1.6-0.1-3.1-0.4-4.4c-0.1-0.9-0.3-1.9-0.7-3c-0.3-1.1-0.8-2.4-1.7-3.7c-0.3-0.4-0.8-0.9-1.6-1.7
		c-0.5-0.4-1.3-0.9-2.3-1.4c-1.5-0.6-3.3-1-5.4-1.1h-2.7c-1.1,0.1-2.1,0.4-3.1,0.7c-1.1,0.4-2,1-2.8,1.8c-0.5,0.5-1.1,1.4-1.7,2.6
		l-1.1,2.7c-0.3,1.2-0.6,2.1-0.6,2.8c-0.1,0.7-0.3,1.6-0.5,2.8L28,19.3c-0.1,1.3-0.3,3.3-0.5,5.9l-1,15.2v3l0.4,6.1
		c0.1,1.3,0.1,3.4,0.1,6.1v6l0.4,5.9c0.1,1.3,0.5,3.2,1,5.7c0.1,0.4,0.4,1.4,1,2.9c0.4,1,0.9,1.8,1.5,2.6c0.9,1,1.7,1.8,2.5,2.3
		c0.9,0.6,1.9,1,3,1.2c0.7,0.1,1.7,0.3,3,0.4l2.1,0.1c0.1-0.1,0.4-0.1,0.7-0.1c0.3,0,0.8-0.1,1.5-0.2c0.7-0.1,1.1-0.3,1.4-0.4
		c0.9-0.4,1.7-0.9,2.4-1.4c0.7-0.4,1.3-1,1.7-1.8c0.5-0.7,0.9-1.3,1.3-1.9c0.7-1.3,1.1-2.6,1.4-3.6c0.4-1.1,0.7-2.1,0.7-3
		c0.3-1.3,0.4-2.7,0.4-4.4v-1.7l0.1-0.1L53,64.1z M66.7,2.5c-1.1,0.1-2.1,0.4-3.1,0.9c-0.3,0.1-0.9,0.5-1.7,1.1
		c-0.7,0.7-1.3,1.2-1.5,1.6c-0.7,1-1.4,2.4-2,4.1c-0.5,2.1-0.8,3.7-0.9,4.8c-0.4,2.9-0.6,6.7-0.6,11.3c0,5.7,0,10.1,0.1,13.2
		c0,6.4,0,11.4,0.1,14.8c0,3.4,0,6,0.1,7.7c0,1.8,0.1,4.5,0.3,8.1c0.1,1.9,0.3,3.3,0.5,4.1c0.1,0.9,0.3,1.6,0.5,2.1
		c0.3,0.8,0.6,1.6,0.9,2.3c0.5,0.9,1,1.6,1.6,2.1c0.4,0.4,0.8,0.6,1.1,0.8c0.4,0.4,0.8,0.6,1.3,0.7c0.3,0.1,1.2,0.4,2.6,0.8l1.4,0.1
		c0.6,0,1,0,1.3,0.1c2.1-0.1,3.9-0.5,5.2-1.1c0.7-0.3,1.5-0.8,2.3-1.4c0.7-0.6,1.2-1.3,1.6-2c0.6-0.9,1.1-2.3,1.6-4.3
		c0.3-0.7,0.6-2.1,0.9-4.1l0.3-2c0.1-0.9,0.3-1.6,0.3-2c0.1-1.8,0.3-3.1,0.3-4c0.1-0.4,0.1-1.1,0.1-2l0.1-5.8L81,39.7
		c-0.2-3.1-0.3-5.4-0.3-6.8V20.6c0-1.3-0.1-3.1-0.3-5.4c-0.1-1.6-0.3-3.3-0.7-4.8c-0.3-1.6-0.8-3-1.6-4.3l-1.5-1.7
		c-0.8-0.6-1.4-1-1.9-1.1c-1-0.4-2-0.7-3.1-0.9c-0.6-0.1-1.2-0.1-1.9-0.1L66.7,2.5L66.7,2.5z M69.7,6.1c0.6,0,1,0,1.4,0.1
		c0.7,0,1.4,0.1,2,0.3c0.7,0.4,1.3,0.9,1.7,1.4c0.6,0.9,1,1.9,1.4,3.1c0.3,1.2,0.6,2.7,0.7,4.4c0.1,1,0.3,2.8,0.5,5.1
		c0.1,0.7,0.1,1.6,0.1,2.9l0.1,9.3c0.1,1.5,0,3.8-0.1,6.8l-0.3,18.4c0,1.7,0,3-0.1,3.9c0,3.5-0.1,6.1-0.4,7.8
		c-0.1,1.7-0.4,3-0.6,3.8c-0.5,1.6-1,2.8-1.5,3.4c-0.1,0.3-0.3,0.5-0.5,0.7c-0.1,0.2-0.4,0.4-0.6,0.6c-0.3,0.2-0.7,0.5-1.4,0.8
		c-0.5,0.2-1,0.3-1.6,0.3l-2,0.1c-1.6,0-2.8-0.1-3.7-0.4l-1.3-0.7c-0.2-0.1-0.6-0.5-1.1-1.2c-0.5-0.9-0.9-2-1.3-3.5
		c-0.1-0.2-0.3-1.5-0.7-3.8c-0.1-1.6-0.3-4.3-0.5-7.8v-7.7c0-6.7,0-11.6,0.1-14.8c0-3.4,0.1-7.7,0.3-13.1c0.1-4.5,0.4-8.2,0.9-10.9
		c0.3-1.9,0.6-3.4,0.9-4.3c0.3-0.9,0.7-1.9,1.5-3.1c0.6-0.7,1.3-1.1,2-1.4c0.6-0.3,1.2-0.4,1.9-0.4c0.3-0.1,0.7-0.1,1.3-0.1
		L69.7,6.1L69.7,6.1z"/>
	
		<ellipse transform="matrix(1 -4.884073e-003 4.884073e-003 1 -0.2607 0.3904)" class="st1" cx="79.8" cy="53.6" rx="11.1" ry="11.1"/>
</g>
</svg>
